Coordinates
nRows=11
nColumns=24

# SIMM Motion File Header:
name Coordinates
datacolumns 24
datarows 11
otherdata 1
range 0.87500000000000000000 0.88500000000000001000

Units are S.I. units (second, meters, Newtons, ...)
Angles are in degrees.

endheader
time	pelvis_tx	pelvis_ty	pelvis_tz	pelvis_tilt	pelvis_list	pelvis_rotation	hip_flexion_r	hip_adduction_r	hip_rotation_r	knee_angle_r	ankle_angle_r	subtalar_angle_r	mtp_angle_r	hip_flexion_l	hip_adduction_l	hip_rotation_l	knee_angle_l	ankle_angle_l	subtalar_angle_l	mtp_angle_l	lumbar_extension	lumbar_bending	lumbar_rotation
      0.87500000000000000000	      0.60332206223687013000	      1.03025650369535440000	      0.03331361152323381000	      4.82335999780112080000	     -1.53397663169569660000	      3.15529695568960110000	      9.63372633813382610000	      1.97860709914477170000	     -7.00432915412206820000	    -20.14534836669175300000	      5.49251575515014250000	      0.01165043713590478900	      0.05453666731676656800	      5.97384851758220490000	     -6.07293828757208320000	     -3.41053592432936580000	    -67.36616586169968500000	     -4.81433065110779170000	     -0.00426093718011545840	     -0.08580907233368818800	    -15.21047528938215400000	      4.66094492972043460000	     -3.59127825927247550000
      0.87600000000000000000	      0.60326714306354556000	      1.03044671323181180000	      0.03350302102152315900	      4.82846763343152840000	     -1.53377882878654570000	      3.14277382734568490000	      9.52220273966741890000	      1.99999750381124230000	     -6.98887574289177230000	    -20.06720497542386600000	      5.51183448874952390000	      0.01178197260030454000	      0.05417107516974407900	      6.11345525292683160000	     -6.08993013724004230000	     -3.44201717933644690000	    -67.46019238811794600000	     -4.74074536011691810000	     -0.00426551876692466900	     -0.08557808067395700200	    -15.21558939178168200000	      4.65103678606696480000	     -3.55262682232522180000
      0.87700000000000000000	      0.60321160575955213000	      1.03063657663802010000	      0.03369132417549870100	      4.83357372056621860000	     -1.53305521487666720000	      3.12996068543412290000	      9.41056621022981150000	      2.02072478924628470000	     -6.97283017363338330000	    -19.98868325079777700000	      5.53097326363822090000	      0.01191496964896377300	      0.05379802639079424300	      6.25227311216823360000	     -6.10557619585331680000	     -3.47252010679116820000	    -67.55102039761813200000	     -4.66575201248434190000	     -0.00426981200235587630	     -0.08534322391025336900	    -15.22078426751191300000	      4.64053688606018340000	     -3.51392662543621890000
      0.87800000000000000000	      0.60315544688031164000	      1.03082606032264310000	      0.03387851017246733300	      4.83867631346283480000	     -1.53180895620810810000	      3.11685645320882320000	      9.29882541488591310000	      2.04078930664886070000	     -6.95619435910485430000	    -19.90979862998631600000	      5.54994618203265060000	      0.01205045174918012100	      0.05341819664013674300	      6.39030926743965640000	     -6.11987455784648930000	     -3.50204254956128390000	    -67.63866349112088000000	     -4.58941233322130770000	     -0.00427382682673966940	     -0.08510460613252242300	    -15.22605848884503700000	      4.62945099068014180000	     -3.47518000964659860000
      0.87900000000000000000	      0.60309866295883152000	      1.03101513038887500000	      0.03406456869056136800	      4.84377351003667660000	     -1.53004342876997270000	      3.10346028814854560000	      9.18698890816027540000	      2.06019163200767870000	     -6.93897079055445690000	    -19.83056621975591900000	      5.56876568924370560000	      0.01219228443698841700	      0.05303494077635992300	      6.52757099166914130000	     -6.13282411251768700000	     -3.53058297591245740000	    -67.72313544601060200000	     -4.51178806781898340000	     -0.00427761016898536590	     -0.08486232443474497900	    -15.23141064681008300000	      4.61778502001653730000	     -3.43638942496504860000
      0.88000000000000000000	      0.60304125009330978000	      1.03120375420722650000	      0.03424949018652238100	      4.84886343347784530000	     -1.52776239320139040000	      3.08977148834351430000	      9.07506535286137780000	      2.07893288786235700000	     -6.92116241791580400000	    -19.75100157495429400000	      5.58744548690751230000	      0.01234131395081473700	      0.05264890339802826000	      6.66406565397452160000	     -6.14442477590837570000	     -3.55814059622535560000	    -67.80445022634896200000	     -4.43294090821417350000	     -0.00428116950848789460	     -0.08461647895762516900	    -15.23683936889895400000	      4.60554519997360230000	     -3.39755729429285310000
      0.88100000000000001000	      0.60298320392928684000	      1.03139190064717970000	      0.03443326587333017000	      4.85394423659183170000	     -1.52496997758666850000	      3.07578950288707360000	      8.96306348861357270000	      2.09701471212630920000	     -6.90277265907097440000	    -19.67112064606649800000	      5.60600041281236280000	      0.01249582311163067700	      0.05225824014768976100	      6.79980069712703190000	     -6.15467746942970620000	     -3.58471535379896980000	    -67.88262196184031400000	     -4.35293244864625710000	     -0.00428447846425913070	     -0.08436717246455267800	    -15.24234332404110900000	      4.59273804371451530000	     -3.35868602737634660000
      0.88200000000000001000	      0.60292451993538265000	      1.03157953913441220000	      0.03461588759137328200	      4.85901411409801650000	     -1.52167058492394160000	      3.06151397913345760000	      8.85099202396060040000	      2.11443909350458090000	     -6.88380546228637250000	    -19.59093938679942300000	      5.62444496428688100000	      0.01265448852834149700	      0.05186131517188366500	      6.93478362021078530000	     -6.16358400306926150000	     -3.61030787039423110000	    -67.95766491192978300000	     -4.27182415338295220000	     -0.00428751443328559060	     -0.08411450545431531400	    -15.24792121328084700000	      4.57937027267654260000	     -3.31977808976279660000
      0.88300000000000001000	      0.60286519364931168000	      1.03176663882295270000	      0.03479734773393446100	      4.86407131168686920000	     -1.51786882440349590000	      3.04694479670835250000	      8.73885956014917480000	      2.13120825066592090000	     -6.86426533508954770000	    -19.51047343748754800000	      5.64279212498367680000	      0.01281825055360952100	      0.05145876607844296300	      7.06902196621317010000	     -6.17114698826281580000	     -3.63491940876165960000	    -68.02959343336569000000	     -4.18967732070459410000	     -0.00429028588941552350	     -0.08385857257355650000	    -15.25357175986641200000	      4.56544875664265600000	     -3.28083605279108470000
      0.88400000000000001000	      0.60280522063455355000	      1.03195316885523660000	      0.03497763925129020900	      4.86911412643674610000	     -1.51356950700952610000	      3.03208206841683880000	      8.62667458247013920000	      2.14732462284207190000	     -6.84415734033315550000	    -19.42973810859445300000	      5.66105323315955380000	      0.01299026233723480500	      0.05105368810053313700	      7.20252330391690250000	     -6.17736983239370920000	     -3.65855187592411290000	    -68.09842196159829100000	     -4.10655303736970280000	     -0.00429283265531923890	     -0.08359946242157094400	    -15.25929371265747200000	      4.55098050597247550000	     -3.24186259513784680000
      0.88500000000000001000	      0.60274459608383602000	      1.03213909970781680000	      0.03515675587137084800	      4.87414089203733700000	     -1.50877779590055530000	      3.01692606179182880000	      8.51444563914002470000	      2.16279115256253450000	     -6.82348700633507120000	    -19.34874909546550000000	      5.67924072830551730000	      0.01317109416449778600	      0.05064665094739069500	      7.33529521555325830000	     -6.18225694374601440000	     -3.68120791876000060000	    -68.16416501847334100000	     -4.02251210859625540000	     -0.00429515971189832570	     -0.08333726607983024700	    -15.26508586669198500000	      4.53597280129238010000	     -3.20286038739612390000
